<svg width="38" height="36" viewBox="0 0 38 36" fill="none" xmlns="http://www.w3.org/2000/svg">
  <path fill-rule="evenodd" clip-rule="evenodd" d="M4.5874 23.3372C4.5874 22.2579 5.46231 21.383 6.54157 21.383L34.0797 21.383C35.1589 21.383 36.0338 22.2579 36.0338 23.3372C36.0338 24.4164 35.1589 25.2914 34.0797 25.2914L6.54157 25.2914C5.46231 25.2914 4.5874 24.4165 4.5874 23.3372Z" fill="#E5E5E5"/>
  <path fill-rule="evenodd" clip-rule="evenodd" d="M23.7329 33.4776C24.4744 34.2618 25.7112 34.2965 26.4954 33.555L35.801 24.7572C36.5852 24.0157 36.6199 22.7789 35.8784 21.9946C35.137 21.2104 33.9001 21.1757 33.1159 21.9172L23.8104 30.715C23.0261 31.4565 22.9914 32.6933 23.7329 33.4776Z" fill="#E5E5E5"/>
  <path fill-rule="evenodd" clip-rule="evenodd" d="M35.4819 11.9167C35.4819 12.9959 34.607 13.8708 33.5278 13.8708L3.74997 13.8709C2.67071 13.8709 1.79581 12.9959 1.79581 11.9167C1.79581 10.8374 2.67071 9.96252 3.74997 9.96252L33.5278 9.96252C34.607 9.96252 35.4819 10.8374 35.4819 11.9167Z" fill="#E5E5E5"/>
  <path fill-rule="evenodd" clip-rule="evenodd" d="M2.34036 13.2985C3.10351 14.0616 4.34082 14.0616 5.10397 13.2985L13.507 4.89543C14.2702 4.13228 14.2702 2.89498 13.507 2.13183C12.7439 1.36868 11.5066 1.36868 10.7434 2.13183L2.34036 10.5349C1.57721 11.298 1.57721 12.5353 2.34036 13.2985Z" fill="#E5E5E5"/>
</svg>
